/* XPM */
static char *_529756dcb0c4d12f501fe7b1b9e6588vYSn2F0pkonKBSsr[] = {
/* columns rows colors chars-per-pixel */
"64 64 3 1 ",
"  c black",
". c #555555",
"X c white",
/* pixels */
"XXXXXXXXXXXXXXXXXXXXXXXXXXXXXXXXXXXXXXXXXXXXXXXXXXXXXXXXXXXXXXXX",
"X                                                              X",
"X                                                              X",
"X                                                              X",
"X  XXXXXXXXXXXXX      XXXXX      XXX       XXX  XXXXXXXXXXXXX  X",
"X  XXXXXXXXXXXXX      XXXXX      XXX       XXX  XXXXXXXXXXXXX  X",
"X  XXXXXXXXXXXXX      XXXXX      XXX       XXX  XXXXXXXXXXXXX  X",
"X  XXX               XXX XXX      XXX     XXX   XXX            X",
"X  XXX               XXX XXX      XXX     XXX   XXX            X",
"X  XXX               XXX XXX      XXX     XXX   XXX            X",
"X  XXXXXXXXXXXXX    XXX   XXX      XXX   XXX    XXXXXXXXXXXXX  X",
"X  XXXXXXXXXXXXX    XXXXXXXXX      XXX   XXX    XXXXXXXXXXXXX  X",
"X  XXXXXXXXXXXXX    XXXXXXXXX      XXX   XXX    XXXXXXXXXXXXX  X",
"X            XXX   XXXXXXXXXXX      XXX XXX     XXX            X",
"X            XXX   XXX     XXX      XXX XXX     XXX            X",
"X            XXX   XXX     XXX      XXX XXX     XXX            X",
"X  XXXXXXXXXXXXX  XXX       XXX      XXXXX      XXXXXXXXXXXXX  X",
"X  XXXXXXXXXXXXX  XXX       XXX      XXXXX      XXXXXXXXXXXXX  X",
"X  XXXXXXXXXXXXX  XXX       XXX      XXXXX      XXXXXXXXXXXXX  X",
"X                                                              X",
"X                                                              X",
"X                                                              X",
"XXXXXXXXXXXXXXXXXXXXXXXXXXXXXXXXXXXXXXXXXXXXXXXXXXXXXXXXXXXXXXXX",
"................................................................",
"................................................................",
"................................................................",
"................................................................",
"................................................................",
"................................................................",
"................................................................",
"................................................................",
"................................................................",
"................................................................",
"................................................................",
"................................................................",
"................................................................",
"................................................................",
"................................................................",
"................................................................",
"................................................................",
"................................................................",
"XXXXXXXXXXXXXXXXXXXXXXXXXXXXXXXXXXXXXXXXXXXXXXXXXXXXXXXXXXXXXXXX",
"X                                                              X",
"X                                                              X",
"X                                                              X",
"X  XXX            XXXXXXXXXXXXX      XXXXX      XXXXXXXXX      X",
"X  XXX            XXXXXXXXXXXXX      XXXXX      XXXXXXXXXXXX   X",
"X  XXX            XXXXXXXXXXXXX      XXXXX      XXXXXXXXXXXXX  X",
"X  XXX            XXX       XXX     XXX XXX     XXX      XXXX  X",
"X  XXX            XXX       XXX     XXX XXX     XXX       XXX  X",
"X  XXX            XXX       XXX     XXX XXX     XXX       XXX  X",
"X  XXX            XXX       XXX    XXX   XXX    XXX       XXX  X",
"X  XXX            XXX       XXX    XXXXXXXXX    XXX       XXX  X",
"X  XXX            XXX       XXX    XXXXXXXXX    XXX       XXX  X",
"X  XXX            XXX       XXX   XXXXXXXXXXX   XXX       XXX  X",
"X  XXX            XXX       XXX   XXX     XXX   XXX       XXX  X",
"X  XXX            XXX       XXX   XXX     XXX   XXX      XXXX  X",
"X  XXXXXXXXXXXXX  XXXXXXXXXXXXX  XXX       XXX  XXXXXXXXXXXXX  X",
"X  XXXXXXXXXXXXX  XXXXXXXXXXXXX  XXX       XXX  XXXXXXXXXXXX   X",
"X  XXXXXXXXXXXXX  XXXXXXXXXXXXX  XXX       XXX  XXXXXXXXX      X",
"X                                                              X",
"X                                                              X",
"X                                                              X",
"XXXXXXXXXXXXXXXXXXXXXXXXXXXXXXXXXXXXXXXXXXXXXXXXXXXXXXXXXXXXXXXX"
};
